<mxfile host="app.diagrams.net" modified="2023-04-26T15:23:16.912Z" agent="Mozilla/5.0 (Windows NT 10.0; Win64; x64) AppleWebKit/537.36 (KHTML, like Gecko) Chrome/112.0.0.0 Safari/537.36" etag="BcPZGRxFuro_s65M71C7" version="21.2.2" type="github" pages="2">
  <diagram id="6a731a19-8d31-9384-78a2-239565b7b9f0" name="BigPicture">
    <mxGraphModel dx="1434" dy="804" grid="1" gridSize="10" guides="1" tooltips="1" connect="1" arrows="1" fold="1" page="1" pageScale="1" pageWidth="1169" pageHeight="827" background="#003469" math="0" shadow="0">
      <root>
        <mxCell id="0" />
        <mxCell id="1" parent="0" />
        <mxCell id="2019" value="" style="rounded=1;whiteSpace=wrap;html=1;dashed=1;strokeColor=none;strokeWidth=2;fillColor=#E6E6E6;fontFamily=Verdana;fontSize=12;fontColor=#00BEF2" parent="1" vertex="1">
          <mxGeometry x="40" y="120" width="165" height="670" as="geometry" />
        </mxCell>
        <mxCell id="2020" value="" style="rounded=1;whiteSpace=wrap;html=1;dashed=1;strokeColor=none;strokeWidth=2;fillColor=#E6E6E6;fontFamily=Verdana;fontSize=12;fontColor=#00BEF2" parent="1" vertex="1">
          <mxGeometry x="220" y="120" width="165" height="670" as="geometry" />
        </mxCell>
        <mxCell id="2021" value="" style="rounded=1;whiteSpace=wrap;html=1;dashed=1;strokeColor=none;strokeWidth=2;fillColor=#E6E6E6;fontFamily=Verdana;fontSize=12;fontColor=#00BEF2" parent="1" vertex="1">
          <mxGeometry x="400" y="120" width="165" height="670" as="geometry" />
        </mxCell>
        <mxCell id="2022" value="" style="rounded=1;whiteSpace=wrap;html=1;dashed=1;strokeColor=none;strokeWidth=2;fillColor=#E6E6E6;fontFamily=Verdana;fontSize=12;fontColor=#00BEF2" parent="1" vertex="1">
          <mxGeometry x="580" y="120" width="165" height="670" as="geometry" />
        </mxCell>
        <mxCell id="2023" value="" style="rounded=1;whiteSpace=wrap;html=1;dashed=1;strokeColor=none;strokeWidth=2;fillColor=#E6E6E6;fontFamily=Verdana;fontSize=12;fontColor=#00BEF2" parent="1" vertex="1">
          <mxGeometry x="760" y="120" width="165" height="670" as="geometry" />
        </mxCell>
        <mxCell id="2024" value="" style="rounded=1;whiteSpace=wrap;html=1;dashed=1;strokeColor=none;strokeWidth=2;fillColor=#E6E6E6;fontFamily=Verdana;fontSize=12;fontColor=#00BEF2" parent="1" vertex="1">
          <mxGeometry x="940" y="120" width="165" height="670" as="geometry" />
        </mxCell>
        <mxCell id="2025" value="Event" style="whiteSpace=wrap;html=1;dashed=1;strokeColor=none;strokeWidth=2;fillColor=#3399FF;fontFamily=Helvetica;fontSize=18;fontColor=#FFFFFF;fontStyle=1" parent="1" vertex="1">
          <mxGeometry x="40" y="120" width="165" height="60" as="geometry" />
        </mxCell>
        <mxCell id="2026" value="Compute" style="whiteSpace=wrap;html=1;dashed=1;strokeColor=none;strokeWidth=2;fillColor=#3399FF;fontFamily=Helvetica;fontSize=18;fontColor=#FFFFFF;fontStyle=1" parent="1" vertex="1">
          <mxGeometry x="220" y="120" width="165" height="60" as="geometry" />
        </mxCell>
        <mxCell id="2027" value="Data&lt;div&gt;Services&lt;/div&gt;" style="whiteSpace=wrap;html=1;dashed=1;strokeColor=none;strokeWidth=2;fillColor=#3399FF;fontFamily=Helvetica;fontSize=18;fontColor=#FFFFFF;fontStyle=1" parent="1" vertex="1">
          <mxGeometry x="400" y="120" width="165" height="60" as="geometry" />
        </mxCell>
        <mxCell id="2028" value="Data&lt;div&gt;Storage&lt;/div&gt;" style="whiteSpace=wrap;html=1;dashed=1;strokeColor=none;strokeWidth=2;fillColor=#3399FF;fontFamily=Helvetica;fontSize=18;fontColor=#FFFFFF;fontStyle=1" parent="1" vertex="1">
          <mxGeometry x="580" y="120" width="165" height="60" as="geometry" />
        </mxCell>
        <mxCell id="2029" value="App&lt;div&gt;Services&lt;/div&gt;" style="whiteSpace=wrap;html=1;dashed=1;strokeColor=none;strokeWidth=2;fillColor=#3399FF;fontFamily=Helvetica;fontSize=18;fontColor=#FFFFFF;fontStyle=1" parent="1" vertex="1">
          <mxGeometry x="760" y="120" width="165" height="60" as="geometry" />
        </mxCell>
        <mxCell id="2030" value="&amp;nbsp; &amp;nbsp;Presentation" style="whiteSpace=wrap;html=1;dashed=1;strokeColor=none;strokeWidth=2;fillColor=#3399FF;fontFamily=Helvetica;fontSize=18;fontColor=#FFFFFF;fontStyle=1" parent="1" vertex="1">
          <mxGeometry x="940" y="120" width="165" height="60" as="geometry" />
        </mxCell>
        <mxCell id="2031" value="" style="shape=mxgraph.arrows.two_way_arrow_horizontal;html=1;verticalLabelPosition=bottom;verticalAlign=top;strokeWidth=2;strokeColor=none;dashed=1;fillColor=#FFFFFF;fontFamily=Verdana;fontSize=12;fontColor=#00BEF2" parent="1" vertex="1">
          <mxGeometry x="180" y="131" width="67" height="39" as="geometry" />
        </mxCell>
        <mxCell id="2032" value="" style="shape=mxgraph.arrows.two_way_arrow_horizontal;html=1;verticalLabelPosition=bottom;verticalAlign=top;strokeWidth=2;strokeColor=none;dashed=1;fillColor=#FFFFFF;fontFamily=Verdana;fontSize=12;fontColor=#00BEF2" parent="1" vertex="1">
          <mxGeometry x="360" y="131" width="67" height="39" as="geometry" />
        </mxCell>
        <mxCell id="2033" value="" style="shape=mxgraph.arrows.two_way_arrow_horizontal;html=1;verticalLabelPosition=bottom;verticalAlign=top;strokeWidth=2;strokeColor=none;dashed=1;fillColor=#FFFFFF;fontFamily=Verdana;fontSize=12;fontColor=#00BEF2" parent="1" vertex="1">
          <mxGeometry x="540" y="131" width="67" height="39" as="geometry" />
        </mxCell>
        <mxCell id="2034" value="" style="shape=mxgraph.arrows.two_way_arrow_horizontal;html=1;verticalLabelPosition=bottom;verticalAlign=top;strokeWidth=2;strokeColor=none;dashed=1;fillColor=#FFFFFF;fontFamily=Verdana;fontSize=12;fontColor=#00BEF2" parent="1" vertex="1">
          <mxGeometry x="720" y="131" width="67" height="39" as="geometry" />
        </mxCell>
        <mxCell id="2035" value="" style="shape=mxgraph.arrows.two_way_arrow_horizontal;html=1;verticalLabelPosition=bottom;verticalAlign=top;strokeWidth=2;strokeColor=none;dashed=1;fillColor=#FFFFFF;fontFamily=Verdana;fontSize=12;fontColor=#00BEF2" parent="1" vertex="1">
          <mxGeometry x="900" y="131" width="67" height="39" as="geometry" />
        </mxCell>
        <mxCell id="2036" value="" style="verticalLabelPosition=bottom;html=1;verticalAlign=top;strokeColor=none;fillColor=#003366;shape=mxgraph.azure.cloud_service;dashed=1;fontFamily=Helvetica;fontSize=18;fontColor=#FFFFFF;opacity=25" parent="1" vertex="1">
          <mxGeometry x="90" y="180" width="970" height="600" as="geometry" />
        </mxCell>
        <mxCell id="2037" value="" style="verticalLabelPosition=bottom;html=1;verticalAlign=top;strokeColor=none;fillColor=#3399FF;shape=mxgraph.azure.tablet;dashed=1;fontFamily=Helvetica;fontSize=14;fontColor=#004C99" parent="1" vertex="1">
          <mxGeometry x="66" y="401" width="50" height="37.5" as="geometry" />
        </mxCell>
        <mxCell id="2038" value="" style="verticalLabelPosition=bottom;html=1;verticalAlign=top;strokeColor=none;fillColor=#3399FF;shape=mxgraph.azure.mobile;dashed=1;fontFamily=Helvetica;fontSize=14;fontColor=#004C99" parent="1" vertex="1">
          <mxGeometry x="146" y="395" width="35" height="50" as="geometry" />
        </mxCell>
        <mxCell id="2039" value="Devices" style="verticalLabelPosition=bottom;html=1;verticalAlign=top;strokeColor=none;fillColor=#3399FF;shape=mxgraph.azure.laptop;dashed=1;fontFamily=Helvetica;fontSize=14;fontColor=#004C99" parent="1" vertex="1">
          <mxGeometry x="96" y="451" width="50" height="30" as="geometry" />
        </mxCell>
        <mxCell id="2040" value="Applications" style="verticalLabelPosition=bottom;html=1;verticalAlign=top;strokeColor=none;fillColor=#3399FF;shape=mxgraph.azure.mobile_services;dashed=1;fontFamily=Helvetica;fontSize=14;fontColor=#004C99" parent="1" vertex="1">
          <mxGeometry x="107" y="250" width="32.5" height="50" as="geometry" />
        </mxCell>
        <mxCell id="2041" value="Social" style="verticalLabelPosition=bottom;html=1;verticalAlign=top;strokeColor=none;fillColor=#3399FF;shape=mxgraph.azure.user;dashed=1;fontSize=14;fontColor=#004C99" parent="1" vertex="1">
          <mxGeometry x="92" y="680" width="47.5" height="50" as="geometry" />
        </mxCell>
        <mxCell id="2042" value="" style="verticalLabelPosition=bottom;html=1;verticalAlign=top;strokeColor=none;fillColor=#3399FF;shape=mxgraph.azure.github_code;dashed=1;fontSize=14;fontColor=#004C99" parent="1" vertex="1">
          <mxGeometry x="133" y="560" width="50" height="50" as="geometry" />
        </mxCell>
        <mxCell id="2043" value="" style="verticalLabelPosition=bottom;html=1;verticalAlign=top;strokeColor=none;fillColor=#3399FF;shape=mxgraph.azure.dropbox_code_source;dashed=1;fontSize=14;fontColor=#004C99" parent="1" vertex="1">
          <mxGeometry x="73" y="563" width="50" height="47.5" as="geometry" />
        </mxCell>
        <mxCell id="2044" value="Repositories" style="text;html=1;strokeColor=none;fillColor=none;align=center;verticalAlign=middle;whiteSpace=wrap;overflow=hidden;dashed=1;fontSize=14;fontColor=#004C99" parent="1" vertex="1">
          <mxGeometry x="60" y="620" width="120" height="20" as="geometry" />
        </mxCell>
        <mxCell id="2045" value="Azure Website" style="verticalLabelPosition=bottom;html=1;verticalAlign=top;strokeColor=none;fillColor=#3399FF;shape=mxgraph.azure.azure_website;dashed=1;fontSize=14;fontColor=#004C99" parent="1" vertex="1">
          <mxGeometry x="278" y="258" width="50" height="50" as="geometry" />
        </mxCell>
        <mxCell id="2046" value="Mobile Services" style="verticalLabelPosition=bottom;html=1;verticalAlign=top;strokeColor=none;fillColor=#3399FF;shape=mxgraph.azure.mobile_services;dashed=1;fontSize=14;fontColor=#004C99" parent="1" vertex="1">
          <mxGeometry x="287" y="661" width="32.5" height="50" as="geometry" />
        </mxCell>
        <mxCell id="2047" value="Windows Azure Management Portal" style="text;html=1;strokeColor=none;fillColor=none;align=center;verticalAlign=middle;whiteSpace=wrap;overflow=hidden;dashed=1;fontSize=36;fontColor=#FFFFFF;fontFamily=Helvetica;fontStyle=1" parent="1" vertex="1">
          <mxGeometry x="40" y="50" width="1060" height="50" as="geometry" />
        </mxCell>
        <mxCell id="2048" value="Business&amp;nbsp;&lt;div&gt;Analytics&lt;/div&gt;" style="rounded=1;whiteSpace=wrap;html=1;dashed=1;strokeColor=none;strokeWidth=2;fillColor=#FFFFFF;fontFamily=Helvetica;fontSize=14;fontColor=#FFB366;opacity=75;verticalAlign=top;fontStyle=1" parent="1" vertex="1">
          <mxGeometry x="410" y="190" width="140" height="260" as="geometry" />
        </mxCell>
        <mxCell id="2049" value="Data&lt;div&gt;Management&lt;/div&gt;" style="rounded=1;whiteSpace=wrap;html=1;dashed=1;strokeColor=none;strokeWidth=2;fillColor=#FFFFFF;fontFamily=Helvetica;fontSize=14;fontColor=#FFB366;opacity=75;verticalAlign=top;fontStyle=1" parent="1" vertex="1">
          <mxGeometry x="413" y="460" width="140" height="320" as="geometry" />
        </mxCell>
        <mxCell id="2050" value="SQL Reporting" style="verticalLabelPosition=bottom;html=1;verticalAlign=top;strokeColor=none;fillColor=#3399FF;shape=mxgraph.azure.sql_reporting;dashed=1;fontSize=14;fontColor=#004C99" parent="1" vertex="1">
          <mxGeometry x="460" y="258" width="40" height="50" as="geometry" />
        </mxCell>
        <mxCell id="2051" value="HDInsight" style="verticalLabelPosition=bottom;html=1;verticalAlign=top;strokeColor=none;fillColor=#3399FF;shape=mxgraph.azure.hdinsight;dashed=1;fontSize=14;fontColor=#004C99" parent="1" vertex="1">
          <mxGeometry x="458" y="355" width="50" height="50" as="geometry" />
        </mxCell>
        <mxCell id="2052" value="SQL Database" style="verticalLabelPosition=bottom;html=1;verticalAlign=top;strokeColor=none;fillColor=#3399FF;shape=mxgraph.azure.sql_database;dashed=1;fontFamily=Helvetica;fontSize=14;fontColor=#004C99" parent="1" vertex="1">
          <mxGeometry x="464" y="600" width="37.5" height="50" as="geometry" />
        </mxCell>
        <mxCell id="2053" value="Tables" style="verticalLabelPosition=bottom;html=1;verticalAlign=top;strokeColor=none;fillColor=#3399FF;shape=mxgraph.azure.storage_table;dashed=1;fontFamily=Helvetica;fontSize=14;fontColor=#004C99" parent="1" vertex="1">
          <mxGeometry x="458" y="689" width="50" height="45" as="geometry" />
        </mxCell>
        <mxCell id="2054" value="Blobs" style="verticalLabelPosition=bottom;html=1;verticalAlign=top;strokeColor=none;fillColor=#3399FF;shape=mxgraph.azure.storage_blob;dashed=1;fontFamily=Helvetica;fontSize=14;fontColor=#004C99" parent="1" vertex="1">
          <mxGeometry x="457" y="523" width="50" height="45" as="geometry" />
        </mxCell>
        <mxCell id="2055" value="Storage Management" style="rounded=1;whiteSpace=wrap;html=1;dashed=1;strokeColor=none;strokeWidth=2;fillColor=#FFFFFF;fontFamily=Helvetica;fontSize=14;fontColor=#FFB366;opacity=75;verticalAlign=top;fontStyle=1" parent="1" vertex="1">
          <mxGeometry x="594" y="240" width="140" height="280" as="geometry" />
        </mxCell>
        <mxCell id="2056" value="Storage Servers" style="verticalLabelPosition=bottom;html=1;verticalAlign=top;strokeColor=none;fillColor=#3399FF;shape=mxgraph.azure.server_rack;dashed=1;fontFamily=Helvetica;fontSize=14;fontColor=#004C99" parent="1" vertex="1">
          <mxGeometry x="639" y="316" width="50" height="50" as="geometry" />
        </mxCell>
        <mxCell id="2057" value="Database" style="verticalLabelPosition=bottom;html=1;verticalAlign=top;strokeColor=none;fillColor=#3399FF;shape=mxgraph.azure.database;dashed=1;fontFamily=Helvetica;fontSize=14;fontColor=#004C99" parent="1" vertex="1">
          <mxGeometry x="644" y="414" width="37.5" height="50" as="geometry" />
        </mxCell>
        <mxCell id="2058" value="Physical&lt;div&gt;Data Storage&lt;/div&gt;" style="verticalLabelPosition=bottom;html=1;verticalAlign=top;strokeColor=none;fillColor=#3399FF;shape=mxgraph.azure.vhd;dashed=1;fontFamily=Helvetica;fontSize=14;fontColor=#004C99" parent="1" vertex="1">
          <mxGeometry x="643" y="590" width="40" height="50" as="geometry" />
        </mxCell>
        <mxCell id="2059" value="Identity" style="rounded=1;whiteSpace=wrap;html=1;dashed=1;strokeColor=none;strokeWidth=2;fillColor=#FFFFFF;fontFamily=Helvetica;fontSize=14;fontColor=#FFB366;opacity=75;verticalAlign=top;fontStyle=1" parent="1" vertex="1">
          <mxGeometry x="773" y="196" width="140" height="134" as="geometry" />
        </mxCell>
        <mxCell id="2060" value="Windows Azure&amp;nbsp;&lt;div&gt;Active Directorry&lt;/div&gt;" style="verticalLabelPosition=bottom;html=1;verticalAlign=top;strokeColor=none;fillColor=#3399FF;shape=mxgraph.azure.azure_active_directory;dashed=1;fontFamily=Helvetica;fontSize=14;fontColor=#004C99" parent="1" vertex="1">
          <mxGeometry x="819" y="225" width="47.5" height="50" as="geometry" />
        </mxCell>
        <mxCell id="2061" value="Performance" style="rounded=1;whiteSpace=wrap;html=1;dashed=1;strokeColor=none;strokeWidth=2;fillColor=#FFFFFF;fontFamily=Helvetica;fontSize=14;fontColor=#FFB366;opacity=75;verticalAlign=top;fontStyle=1" parent="1" vertex="1">
          <mxGeometry x="774" y="341" width="140" height="199" as="geometry" />
        </mxCell>
        <mxCell id="2062" value="Caching" style="verticalLabelPosition=bottom;html=1;verticalAlign=top;strokeColor=none;fillColor=#3399FF;shape=mxgraph.azure.azure_cache;dashed=1;fontFamily=Helvetica;fontSize=14;fontColor=#004C99" parent="1" vertex="1">
          <mxGeometry x="821" y="376" width="45" height="50" as="geometry" />
        </mxCell>
        <mxCell id="2063" value="Content&amp;nbsp;&lt;div&gt;Delivery Network&lt;/div&gt;" style="verticalLabelPosition=bottom;html=1;verticalAlign=top;strokeColor=none;fillColor=#3399FF;shape=mxgraph.azure.content_delivery_network;dashed=1;fontFamily=Helvetica;fontSize=14;fontColor=#004C99" parent="1" vertex="1">
          <mxGeometry x="819" y="455" width="50" height="32.5" as="geometry" />
        </mxCell>
        <mxCell id="2064" value="Messaging" style="rounded=1;whiteSpace=wrap;html=1;dashed=1;strokeColor=none;strokeWidth=2;fillColor=#FFFFFF;fontFamily=Helvetica;fontSize=14;fontColor=#FFB366;opacity=75;verticalAlign=top;fontStyle=1" parent="1" vertex="1">
          <mxGeometry x="773" y="550" width="140" height="229" as="geometry" />
        </mxCell>
        <mxCell id="2065" value="Queues" style="verticalLabelPosition=bottom;html=1;verticalAlign=top;strokeColor=none;fillColor=#3399FF;shape=mxgraph.azure.queue_generic;dashed=1;fontFamily=Helvetica;fontSize=14;fontColor=#004C99" parent="1" vertex="1">
          <mxGeometry x="820" y="576" width="50" height="15" as="geometry" />
        </mxCell>
        <mxCell id="2066" value="Service Bus" style="verticalLabelPosition=bottom;html=1;verticalAlign=top;strokeColor=none;fillColor=#3399FF;shape=mxgraph.azure.service_bus;dashed=1;fontFamily=Helvetica;fontSize=14;fontColor=#004C99" parent="1" vertex="1">
          <mxGeometry x="824" y="624" width="45" height="50" as="geometry" />
        </mxCell>
        <mxCell id="2067" value="Media Services" style="verticalLabelPosition=bottom;html=1;verticalAlign=top;strokeColor=none;fillColor=#3399FF;shape=mxgraph.azure.media_service;dashed=1;fontFamily=Helvetica;fontSize=14;fontColor=#004C99" parent="1" vertex="1">
          <mxGeometry x="821" y="703" width="45" height="50" as="geometry" />
        </mxCell>
        <mxCell id="2068" value="Cloud&lt;div&gt;Services&lt;/div&gt;" style="rounded=1;whiteSpace=wrap;html=1;dashed=1;strokeColor=none;strokeWidth=2;fillColor=#FFFFFF;fontFamily=Helvetica;fontSize=14;fontColor=#FFB366;opacity=75;verticalAlign=top;fontStyle=1" parent="1" vertex="1">
          <mxGeometry x="233" y="397" width="140" height="223" as="geometry" />
        </mxCell>
        <mxCell id="2069" value="Cloud" style="verticalLabelPosition=bottom;html=1;verticalAlign=top;strokeColor=none;fillColor=#3399FF;shape=mxgraph.azure.cloud;dashed=1;fontSize=14;fontColor=#004C99" parent="1" vertex="1">
          <mxGeometry x="278" y="449" width="50" height="32.5" as="geometry" />
        </mxCell>
        <mxCell id="2070" value="Virtual Machine" style="verticalLabelPosition=bottom;html=1;verticalAlign=top;strokeColor=none;fillColor=#3399FF;shape=mxgraph.azure.virtual_machine;dashed=1;fontSize=14;fontColor=#004C99" parent="1" vertex="1">
          <mxGeometry x="278" y="536" width="50" height="40" as="geometry" />
        </mxCell>
        <mxCell id="2071" value="Web Dashboards" style="verticalLabelPosition=bottom;html=1;verticalAlign=top;strokeColor=none;fillColor=#3399FF;shape=mxgraph.azure.laptop;dashed=1;fontFamily=Helvetica;fontSize=14;fontColor=#004C99" parent="1" vertex="1">
          <mxGeometry x="998" y="301" width="50" height="30" as="geometry" />
        </mxCell>
        <mxCell id="2072" value="Certificates" style="verticalLabelPosition=bottom;html=1;verticalAlign=top;strokeColor=none;fillColor=#3399FF;shape=mxgraph.azure.certificate;dashed=1;fontFamily=Helvetica;fontSize=14;fontColor=#004C99" parent="1" vertex="1">
          <mxGeometry x="998" y="399" width="50" height="40" as="geometry" />
        </mxCell>
        <mxCell id="2073" value="Enterprise&lt;div&gt;Services&lt;/div&gt;" style="verticalLabelPosition=bottom;html=1;verticalAlign=top;strokeColor=none;fillColor=#3399FF;shape=mxgraph.azure.enterprise;dashed=1;fontFamily=Helvetica;fontSize=14;fontColor=#004C99" parent="1" vertex="1">
          <mxGeometry x="1008" y="518" width="30" height="50" as="geometry" />
        </mxCell>
        <mxCell id="2074" value="Seminars" style="verticalLabelPosition=bottom;html=1;verticalAlign=top;strokeColor=none;fillColor=#3399FF;shape=mxgraph.azure.user;dashed=1;fontFamily=Helvetica;fontSize=14;fontColor=#004C99" parent="1" vertex="1">
          <mxGeometry x="1001" y="630" width="47.5" height="50" as="geometry" />
        </mxCell>
        <mxCell id="2075" value="" style="arrow;html=1;endArrow=block;endFill=1;strokeColor=none;strokeWidth=4;fontFamily=Helvetica;fontSize=36;fontColor=#FFB366;fillColor=#FFB366;" parent="1" edge="1">
          <mxGeometry width="100" height="100" relative="1" as="geometry">
            <mxPoint x="167" y="283" as="sourcePoint" />
            <mxPoint x="247" y="283" as="targetPoint" />
          </mxGeometry>
        </mxCell>
        <mxCell id="2076" value="" style="arrow;html=1;endArrow=block;endFill=1;strokeColor=none;strokeWidth=4;fontFamily=Helvetica;fontSize=36;fontColor=#FFB366;fillColor=#FFB366;opacity=100" parent="1" edge="1">
          <mxGeometry width="100" height="100" relative="1" as="geometry">
            <mxPoint x="347" y="283" as="sourcePoint" />
            <mxPoint x="427" y="283" as="targetPoint" />
          </mxGeometry>
        </mxCell>
        <mxCell id="2077" value="" style="arrow;html=1;endArrow=block;endFill=1;strokeColor=none;strokeWidth=4;fontFamily=Helvetica;fontSize=36;fontColor=#FFB366;fillColor=#FFB366;" parent="1" edge="1">
          <mxGeometry width="100" height="100" relative="1" as="geometry">
            <mxPoint x="527" y="360" as="sourcePoint" />
            <mxPoint x="607" y="360" as="targetPoint" />
          </mxGeometry>
        </mxCell>
        <mxCell id="2078" value="" style="arrow;html=1;endArrow=block;endFill=1;strokeColor=none;strokeWidth=4;fontFamily=Helvetica;fontSize=36;fontColor=#FFB366;fillColor=#FFB366;" parent="1" edge="1">
          <mxGeometry width="100" height="100" relative="1" as="geometry">
            <mxPoint x="714" y="426" as="sourcePoint" />
            <mxPoint x="794" y="426" as="targetPoint" />
          </mxGeometry>
        </mxCell>
        <mxCell id="2079" value="" style="arrow;html=1;endArrow=block;endFill=1;strokeColor=none;strokeWidth=4;fontFamily=Helvetica;fontSize=36;fontColor=#FFB366;fillColor=#FFB366;" parent="1" edge="1">
          <mxGeometry width="100" height="100" relative="1" as="geometry">
            <mxPoint x="714" y="270" as="sourcePoint" />
            <mxPoint x="794" y="270" as="targetPoint" />
          </mxGeometry>
        </mxCell>
        <mxCell id="2080" value="" style="arrow;html=1;endArrow=block;endFill=1;strokeColor=none;strokeWidth=4;fontFamily=Helvetica;fontSize=36;fontColor=#FFB366;fillColor=#FFB366;" parent="1" edge="1">
          <mxGeometry width="100" height="100" relative="1" as="geometry">
            <mxPoint x="887" y="438" as="sourcePoint" />
            <mxPoint x="967" y="438" as="targetPoint" />
          </mxGeometry>
        </mxCell>
        <mxCell id="2081" value="" style="arrow;html=1;endArrow=block;endFill=1;strokeColor=none;strokeWidth=4;fontFamily=Helvetica;fontSize=36;fontColor=#FFB366;fillColor=#FFB366;" parent="1" edge="1">
          <mxGeometry width="100" height="100" relative="1" as="geometry">
            <mxPoint x="894" y="664" as="sourcePoint" />
            <mxPoint x="974" y="664" as="targetPoint" />
          </mxGeometry>
        </mxCell>
        <mxCell id="2082" value="" style="arrow;html=1;endArrow=block;endFill=1;strokeColor=none;strokeWidth=4;fontFamily=Helvetica;fontSize=36;fontColor=#FFB366;fillColor=#FFB366;" parent="1" edge="1">
          <mxGeometry width="100" height="100" relative="1" as="geometry">
            <mxPoint x="707" y="639" as="sourcePoint" />
            <mxPoint x="787" y="639" as="targetPoint" />
          </mxGeometry>
        </mxCell>
        <mxCell id="2083" value="" style="arrow;html=1;endArrow=block;endFill=1;strokeColor=none;strokeWidth=4;fontFamily=Helvetica;fontSize=36;fontColor=#FFB366;fillColor=#FFB366;" parent="1" edge="1">
          <mxGeometry width="100" height="100" relative="1" as="geometry">
            <mxPoint x="534" y="624" as="sourcePoint" />
            <mxPoint x="614" y="624" as="targetPoint" />
          </mxGeometry>
        </mxCell>
        <mxCell id="2084" value="" style="arrow;html=1;endArrow=block;endFill=1;strokeColor=none;strokeWidth=4;fontFamily=Helvetica;fontSize=36;fontColor=#FFB366;fillColor=#FFB366;" parent="1" edge="1">
          <mxGeometry width="100" height="100" relative="1" as="geometry">
            <mxPoint x="347" y="536" as="sourcePoint" />
            <mxPoint x="427" y="536" as="targetPoint" />
          </mxGeometry>
        </mxCell>
        <mxCell id="2085" value="" style="arrow;html=1;endArrow=block;endFill=1;strokeColor=none;strokeWidth=4;fontFamily=Helvetica;fontSize=36;fontColor=#FFB366;fillColor=#FFB366;" parent="1" edge="1">
          <mxGeometry width="100" height="100" relative="1" as="geometry">
            <mxPoint x="174" y="688" as="sourcePoint" />
            <mxPoint x="254" y="688" as="targetPoint" />
          </mxGeometry>
        </mxCell>
      </root>
    </mxGraphModel>
  </diagram>
  <diagram id="WYDtnVfYOOl39q-t2YKY" name="DataAndNetwork">
    <mxGraphModel dx="1434" dy="804" grid="1" gridSize="10" guides="1" tooltips="1" connect="1" arrows="1" fold="1" page="1" pageScale="1" pageWidth="850" pageHeight="1100" math="0" shadow="0">
      <root>
        <mxCell id="0" />
        <mxCell id="1" parent="0" />
        <mxCell id="ruPHUchAiI5EwT_0No47-1" value="Resource Group&lt;br&gt;Dev" style="image;aspect=fixed;html=1;points=[];align=center;fontSize=12;image=img/lib/azure2/general/Resource_Group_List.svg;" vertex="1" parent="1">
          <mxGeometry x="130" y="110" width="57.85" height="57" as="geometry" />
        </mxCell>
        <mxCell id="ruPHUchAiI5EwT_0No47-2" value="Resource Group&lt;br&gt;QA" style="image;aspect=fixed;html=1;points=[];align=center;fontSize=12;image=img/lib/azure2/general/Resource_Group_List.svg;" vertex="1" parent="1">
          <mxGeometry x="300" y="110" width="57.85" height="57" as="geometry" />
        </mxCell>
        <mxCell id="ruPHUchAiI5EwT_0No47-7" value="Resource Group&lt;br&gt;Prod-Staging" style="image;aspect=fixed;html=1;points=[];align=center;fontSize=12;image=img/lib/azure2/general/Resource_Group_List.svg;" vertex="1" parent="1">
          <mxGeometry x="440" y="110" width="57.85" height="57" as="geometry" />
        </mxCell>
        <mxCell id="ruPHUchAiI5EwT_0No47-8" value="Resource Group&lt;br&gt;Prod" style="image;aspect=fixed;html=1;points=[];align=center;fontSize=12;image=img/lib/azure2/general/Resource_Group_List.svg;" vertex="1" parent="1">
          <mxGeometry x="560" y="110" width="57.85" height="57" as="geometry" />
        </mxCell>
        <mxCell id="ruPHUchAiI5EwT_0No47-15" value="" style="shape=image;verticalLabelPosition=bottom;labelBackgroundColor=#ffffff;verticalAlign=top;aspect=fixed;imageAspect=0;image=data:image/svg+xml,PHN2ZyB4bWxuczpjYz0iaHR0cDovL2NyZWF0aXZlY29tbW9ucy5vcmcvbnMjIiB4bWxuczpkYz0iaHR0cDovL3B1cmwub3JnL2RjL2VsZW1lbnRzLzEuMS8iIHhtbG5zOmlua3NjYXBlPSJodHRwOi8vd3d3Lmlua3NjYXBlLm9yZy9uYW1lc3BhY2VzL2lua3NjYXBlIiB4bWxuczpyZGY9Imh0dHA6Ly93d3cudzMub3JnLzE5OTkvMDIvMjItcmRmLXN5bnRheC1ucyMiIHhtbG5zOnNvZGlwb2RpPSJodHRwOi8vc29kaXBvZGkuc291cmNlZm9yZ2UubmV0L0RURC9zb2RpcG9kaS0wLmR0ZCIgeG1sbnM6c3ZnPSJodHRwOi8vd3d3LnczLm9yZy8yMDAwL3N2ZyIgeG1sbnM9Imh0dHA6Ly93d3cudzMub3JnLzIwMDAvc3ZnIiB4bWxuczp4bGluaz0iaHR0cDovL3d3dy53My5vcmcvMTk5OS94bGluayIgdmVyc2lvbj0iMS4xIiBpZD0ic3ZnNDc2ODQiIGlua3NjYXBlOnZlcnNpb249IjAuOTIuMyAoMjQwNTU0NiwgMjAxOC0wMy0xMSkiIHNvZGlwb2RpOmRvY25hbWU9ImRldm9wc19hbmRfbWdtdC5zdmciIHg9IjBweCIgeT0iMHB4IiB2aWV3Qm94PSIwIDAgNjUuNTUgNDcuMTciIHN0eWxlPSJlbmFibGUtYmFja2dyb3VuZDpuZXcgMCAwIDY1LjU1IDQ3LjE3OyIgeG1sOnNwYWNlPSJwcmVzZXJ2ZSI+JiN4YTs8c29kaXBvZGk6bmFtZWR2aWV3IGJvcmRlcmNvbG9yPSIjNjY2NjY2IiBib3JkZXJvcGFjaXR5PSIxIiBmaXQtbWFyZ2luLWJvdHRvbT0iMCIgZml0LW1hcmdpbi1sZWZ0PSIwIiBmaXQtbWFyZ2luLXJpZ2h0PSIwIiBmaXQtbWFyZ2luLXRvcD0iMCIgZ3JpZHRvbGVyYW5jZT0iMTAiIGd1aWRldG9sZXJhbmNlPSIxMCIgaWQ9Im5hbWVkdmlldzQ3Njg2IiBpbmtzY2FwZTpjdXJyZW50LWxheWVyPSJzdmc0NzY4NCIgaW5rc2NhcGU6Y3g9IjQ3LjE3MDUzMyIgaW5rc2NhcGU6Y3k9IjE3LjM1MjIzNyIgaW5rc2NhcGU6cGFnZW9wYWNpdHk9IjAiIGlua3NjYXBlOnBhZ2VzaGFkb3c9IjIiIGlua3NjYXBlOndpbmRvdy1oZWlnaHQ9IjEwMTciIGlua3NjYXBlOndpbmRvdy1tYXhpbWl6ZWQ9IjEiIGlua3NjYXBlOndpbmRvdy13aWR0aD0iMTkyMCIgaW5rc2NhcGU6d2luZG93LXg9Ii04IiBpbmtzY2FwZTp3aW5kb3cteT0iLTgiIGlua3NjYXBlOnpvb209IjYuNjcwMDIxOSIgb2JqZWN0dG9sZXJhbmNlPSIxMCIgcGFnZWNvbG9yPSIjZmZmZmZmIiBzaG93Z3JpZD0iZmFsc2UiPiYjeGE7CTwvc29kaXBvZGk6bmFtZWR2aWV3PiYjeGE7PGcgaWQ9Imc0NzY4MiIgdHJhbnNmb3JtPSJ0cmFuc2xhdGUoLTAuNzQ5ODE5ODUsLTAuODE3MzUzMjIpIj4mI3hhOwk8dGl0bGUgaWQ9InRpdGxlNDc2MTQiPlBhZ2UtMTwvdGl0bGU+JiN4YTsJPGcgaWQ9Imdyb3VwMTU5NS0xIiB0cmFuc2Zvcm09InRyYW5zbGF0ZSgxLjQyNjAzLC0xLjUwMjIxKSI+JiN4YTsJCTx0aXRsZSBpZD0idGl0bGU0NzYxNiI+RGV2T3BzIGFuZCBtZ210PC90aXRsZT4mI3hhOwkJPGcgaWQ9InNoYXBlMTU5Ni0yIiB0cmFuc2Zvcm09InRyYW5zbGF0ZSgzNC40MjUsLTE0LjUyNTQpIj4mI3hhOwkJCTx0aXRsZSBpZD0idGl0bGU0NzYxOCI+cGF0aDE0MDcuMzY0Njk8L3RpdGxlPiYjeGE7CQkJPHBhdGggaWQ9InBhdGg0NzYyMCIgaW5rc2NhcGU6Y29ubmVjdG9yLWN1cnZhdHVyZT0iMCIgc3R5bGU9ImZpbGw6I0FBRDJGMjsiIGQ9Ik0xNC4yMiwzMS4xMmMtMS4wMi0wLjQ3LTIuMTItMC43Ny0zLjI1LTAuODYgICAgIGMtMS40NS0wLjExLTIuOTEsMC4wNy00LjI5LDAuNTVjLTIuNCwwLjg0LTQuMzksMi41NC01LjU5LDQuNzhjLTEuMjIsMi4xNi0xLjQ3LDQuNzMtMC42OSw3LjA5YzEuOCw1LjA5LDcuMzYsNy44LDEyLjQ4LDYuMDYgICAgIGMyLjQ5LTAuNzksNC41NS0yLjU1LDUuNzQtNC44N2MxLjEzLTIuMzQsMS4yNi01LjA0LDAuMzctNy40OEMxOC4xOSwzNC4wNSwxNi40NiwzMi4xNSwxNC4yMiwzMS4xMnogTTEwLjgyLDQyLjc2ICAgICBjLTEuNzEsMC41Ny0zLjU1LTAuMzMtNC4xNi0yLjAyYy0wLjUtMS42NywwLjQyLTMuNDMsMi4wOC0zLjk4YzEuNjYtMC41NywzLjQ3LDAuMyw0LjA0LDEuOTYgICAgIEMxMy4zNSw0MC4zOCwxMi40OCw0Mi4xOSwxMC44Miw0Mi43NnoiLz4mI3hhOwkJPC9nPiYjeGE7CQk8ZyBpZD0ic2hhcGUxNTk3LTQiIHRyYW5zZm9ybT0idHJhbnNsYXRlKDIzLjQ3ODUsLTMuMDYzOTcpIj4mI3hhOwkJCTx0aXRsZSBpZD0idGl0bGU0NzYyMyI+cGF0aDE0MDkuMzY0NzA8L3RpdGxlPiYjeGE7CQkJPHBhdGggaWQ9InBhdGg0NzYyNSIgaW5rc2NhcGU6Y29ubmVjdG9yLWN1cnZhdHVyZT0iMCIgc3R5bGU9ImZpbGw6I0FBRDJGMjsiIGQ9Ik00MS4zOSwyOC41OGMwLjA0LTAuMzctMC4yMS0wLjcyLTAuNTgtMC44ICAgICBsLTMuMTYtMC41NWMwLjA3LTAuNzQtMC4wMi0xLjQ5LTAuMjYtMi4ybDIuOC0xLjQ0YzAuMzktMC4xLDAuNjItMC41LDAuNTItMC44OWMtMC4wMS0wLjAzLTAuMDItMC4wNi0wLjAzLTAuMDlsLTAuNjYtMS45ICAgICBjLTAuMTEtMC4zOS0wLjUyLTAuNjItMC45Mi0wLjVjLTAuMDIsMC4wMS0wLjA1LDAuMDItMC4wNywwLjAybC0zLjEsMC41NWMtMC4yNC0wLjY0LTAuNTYtMS4yNC0wLjk1LTEuOGwxLjk3LTIuMjkgICAgIGMwLjI0LTAuMzQsMC4yMi0wLjgtMC4wNi0xLjFsLTEuMzQtMS41MWMtMC4yNS0wLjMxLTAuNzEtMC4zNy0xLjA0LTAuMTRsLTIuNTUsMS42NmMtMC42NC0wLjQzLTEuMTQtMC45Mi0xLjc4LTEuMzZsMC45Ni0yLjkzICAgICBjMC4wNC0wLjM4LTAuMS0wLjc2LTAuMzYtMS4wM2wtMS45My0wLjgxYy0wLjM3LTAuMTctMC44Mi0wLjA5LTEuMSwwLjJsLTEuNywyLjdjLTAuNi0wLjI5LTEuMjktMC4zOC0xLjg4LTAuNjdsLTAuMjMtMy4wMyAgICAgYy0wLjA3LTAuMzctMC4zNS0wLjY2LTAuNzItMC43NGwtMi4xNi0wLjA4Yy0wLjM3LTAuMDMtMC43MSwwLjIzLTAuNzgsMC41OWwtMC43NywzLjAzYy0wLjY0LDAuMDUtMS40MiwwLjE1LTIuMDYsMC4yMSAgICAgbC0xLjQ2LTIuNzZjLTAuMS0wLjI5LTAuNjUtMC40My0wLjk0LTAuMzNsLTIuMDYsMC42OWMtMC4zMiwwLjE2LTAuNTIsMC40OC0wLjU1LDAuODNsMC41NSwzLjA4bC0xLjYyLDEuMDNsLTIuMzgtMi4xMyAgICAgYy0wLjM1LTAuMjEtMC44LTAuMTktMS4xMywwLjA1bC0xLjUyLDEuMzNjLTAuMzIsMC4yMS0wLjQsMC42My0wLjIsMC45NWMwLjAyLDAuMDMsMC4wNCwwLjA1LDAuMDYsMC4wOGwxLjc1LDIuNjcgICAgIGMtMC40OSwwLjU2LTAuOTQsMS4xNi0xLjMzLDEuNzlsLTMuMDItMS4xQzMuMiwxNy44LDIuODEsMTgsMi42MiwxOC4zNmwtMC44NywxLjc2Yy0wLjE1LDAuMzYtMC4wNywwLjc4LDAuMjIsMS4wNWwyLjU3LDEuNzQgICAgIGMtMC4wOSwwLjY4LTAuMzgsMS4yNy0wLjQ4LDEuOTZsLTMuMDUsMC4yMWMtMC40NCwwLjAzLTAuOCwwLjM1LTAuODgsMC43OUwwLDI3Ljg4Yy0wLjAxLDAuNDIsMC4yNiwwLjc5LDAuNjUsMC45MmwzLjE2LDAuNTUgICAgIGMtMC4wMSwwLjc0LDAuMDgsMS40OSwwLjI2LDIuMjFsLTIuOCwxLjQzYy0wLjM1LDAuMTYtMC41LDAuNTgtMC4zNCwwLjkzYzAsMCwwLDAsMCwwbDAuNjYsMS45MWMwLjA4LDAuMzgsMC40NiwwLjYzLDAuODQsMC41NSAgICAgbDMuMTEtMC41NWMwLjM1LDAuNTUsMC42LDEuMjYsMC45NSwxLjhsLTIsMi4yOWMtMC4yNSwwLjI4LTAuMjUsMC43LDAsMC45OGwxLjQsMS42NWMwLjMsMC4yMiwwLjY4LDAuMjcsMS4wMywwLjE0bDIuNy0xLjczICAgICBjMC40NiwwLjUsMSwwLjkzLDEuNTksMS4yNkwxMC4zLDQ1LjNjLTAuMDUsMC4zNCwwLjEsMC43OSwwLjQ1LDAuODNsMS44MywxLjAxYzAuMzcsMC4xOSwwLjgzLDAuMDUsMS4wMi0wLjMyICAgICBjMC0wLjAxLDAuMDEtMC4wMiwwLjAxLTAuMDNsMS43Ni0yLjU1YzAuNjMsMC4yNiwxLjI5LDAuNDIsMS45NywwLjQ4bDAuMjgsMy4xN2MtMC4wMiwwLjM4LDAuMjgsMC43MSwwLjY2LDAuNzMgICAgIGMwLjAzLDAsMC4wNiwwLDAuMDksMGwyLjA1LDAuMTJjMC4zNywwLjAyLDAuNy0wLjIzLDAuNzgtMC41OWwwLjc2LTMuMDNjMC42NC0wLjA1LDEuNDMtMC4xNSwyLjA3LTAuMjFsMS40LDIuNjMgICAgIGMwLjIsMC4zNSwwLjU5LDAuNTMsMC45OSwwLjQ4bDIuMDYtMC42OWMwLjM5LTAuMTYsMC42LTAuNTgsMC40OS0wLjk4bC0wLjUyLTIuOTNsMS42MS0xLjA0bDIuNDksMS45NSAgICAgYzAuMjIsMC4zMiwwLjY1LDAuNCwwLjk3LDAuMTljMC4wMi0wLjAyLDAuMDQtMC4wMywwLjA2LTAuMDVsMS41Mi0xLjMzYzAuMzQtMC4yNywwLjQxLTAuNzYsMC4xNC0xLjExICAgICBjLTAuMDItMC4wMi0wLjA0LTAuMDQtMC4wNS0wLjA2bC0xLjU4LTIuNmMwLjQ2LTAuNTQsMC44Ny0xLjExLDEuMjItMS43MmwyLjk2LDAuOTZjMC4zNywwLjE5LDAuODMsMC4wNSwxLjAyLTAuMzIgICAgIGMwLTAuMDEsMC4wMS0wLjAyLDAuMDEtMC4wM2wwLjk2LTEuOTZjMC4wNi0wLjMyLTAuMDYtMC42Ni0wLjMtMC44OGwtMi42Mi0xLjg4YzAuMjktMC41NywwLjQ3LTEuMTgsMC41NS0xLjgxbDMuMi0wLjI3ICAgICBjMC4zNS0wLjExLDAuNjMtMC4zOSwwLjczLTAuNzRMNDEuMzksMjguNTh6IE0zMS40NywzMy4zNGMtMy4wNCw1Ljk0LTEwLjMxLDguMy0xNi4yNiw1LjI3Yy0yLjc1LTEuNC00Ljg2LTMuODEtNS44OS02LjcyICAgICBjLTAuOTctMi45MS0wLjY3LTYuMDksMC44My04Ljc3YzMuMDctNS43LDEwLjAzLTguMDUsMTUuOTItNS4zN2MyLjc2LDEuMjcsNC44OSwzLjYxLDUuODgsNi40OWMxLjA3LDIuOTcsMC45LDYuMjUtMC40Nyw5LjA5ICAgICBMMzEuNDcsMzMuMzR6Ii8+JiN4YTsJCTwvZz4mI3hhOwkJPGcgaWQ9InNoYXBlMTU5OC02IiB0cmFuc2Zvcm09InJvdGF0ZSgxMCwxOTkuOTE3NjcsMTA4LjcyOTA1KSI+JiN4YTsJCQk8dGl0bGUgaWQ9InRpdGxlNDc2MjgiPnBhdGgxNDc3LjM2NDcxPC90aXRsZT4mI3hhOwkJCTxwYXRoIGlkPSJwYXRoNDc2MzAiIGlua3NjYXBlOmNvbm5lY3Rvci1jdXJ2YXR1cmU9IjAiIHN0eWxlPSJmaWxsOiM3NzUwQTM7IiBkPSJNMTMuNTUsNDMuNTJjLTAuMzUtMC4xNi0wLjg5LTAuMzgtMS4xNy0wLjU1ICAgICBjLTAuMjctMC4xNC0wLjQzLTAuNDQtMC4zOS0wLjc1YzAtMC4zMiwwLTAuNDYsMC4wNS0wLjc3Yy0wLjAxLTAuMjYsMC4xNS0wLjUxLDAuMzktMC42MmMwLjI5LTAuMTgsMC44Ni0wLjUxLDEuMTQtMC42OCAgICAgYzAuMjItMC4wOSwwLjMyLTAuMzMsMC4yMy0wLjU0Yy0wLjAxLTAuMDMtMC4wMi0wLjA1LTAuMDQtMC4wOGMtMC4xMS0wLjI3LTAuMy0wLjY3LTAuNC0wLjg3Yy0wLjA4LTAuMjEtMC4zMS0wLjMxLTAuNTEtMC4yMyAgICAgYy0wLjAxLDAuMDEtMC4wMywwLjAxLTAuMDQsMC4wMmwtMS4yNCwwLjM4Yy0wLjI2LDAuMTItMC41NiwwLjA4LTAuNzctMC4xMWMtMC4yNS0wLjI2LTAuNS0wLjUxLTAuNjItMC42NiAgICAgYy0wLjE4LTAuMjEtMC4yMi0wLjUtMC4xMi0wLjc1YzAuMTItMC4zNywwLjI4LTEuMDMsMC4zNC0xLjI3YzAuMDgtMC4yMi0wLjA0LTAuNDYtMC4yNi0wLjUzYy0wLjAyLTAuMDEtMC4wNC0wLjAxLTAuMDYtMC4wMiAgICAgYy0wLjMxLTAuMTEtMC41LTAuMi0wLjgzLTAuMjlzLTAuNDYtMC4wNC0wLjY1LDAuMjljLTAuMTksMC4zMi0wLjQxLDAuNy0wLjU1LDAuOTVjLTAuMTUsMC4yNS0wLjI3LDAuNDEtMC41NSwwLjQzbC0xLjAxLDAuMDcgICAgIGMtMC4yOSwwLTAuNDctMC4wNi0wLjY3LTAuNDRjLTAuMjEtMC4zOS0wLjQyLTAuOTItMC41MS0xLjFjLTAuMDktMC4yNS0wLjM2LTAuMzctMC42MS0wLjI4Yy0wLjAzLDAuMDEtMC4wNiwwLjAzLTAuMDksMC4wNSAgICAgYy0wLjMsMC4xMi0wLjYsMC4yNi0wLjg1LDAuMzdjLTAuMjQsMC4wNy0wLjM4LDAuMzItMC4zMSwwLjU2YzAuMDEsMC4wNCwwLjAzLDAuMDcsMC4wNSwwLjExYzAuMTQsMC4zOCwwLjMxLDAuODIsMC40MiwxLjEgICAgIGMwLjExLDAuMjUsMC4wMywwLjU1LTAuMTksMC43MmMtMC4yMiwwLjItMC40NiwwLjQ1LTAuNjYsMC42NGMtMC4xOSwwLjIzLTAuNSwwLjMtMC43NywwLjE5Yy0wLjM5LTAuMTItMC44Mi0wLjI1LTEuMTktMC4zOCAgICAgYy0wLjE5LTAuMS0wLjQyLTAuMDMtMC41MiwwLjE2Yy0wLjAxLDAuMDItMC4wMiwwLjA1LTAuMDMsMC4wOGMtMC4xNCwwLjI5LTAuMywwLjcxLTAuNDEsMC45M2MtMC4xMSwwLjE5LTAuMDUsMC40MywwLjEzLDAuNTQgICAgIGMwLjAxLDAuMDEsMC4wMiwwLjAxLDAuMDMsMC4wMWMwLjI2LDAuMTgsMS4yMSwwLjYzLDEuMzYsMC43M2MwLjIxLDAuMTEsMC4zMywwLjM1LDAuMjksMC41OGMtMC4wMywwLjM0LTAuMDUsMC41Ni0wLjEsMC44MiAgICAgYzAsMC4yNy0wLjE2LDAuNTEtMC40MSwwLjYxYy0wLjM2LDAuMTktMC45OCwwLjU1LTEuMTksMC42N1MwLDQzLjkxLDAuMTIsNDQuMThzMC4zMSwwLjcxLDAuMzksMC44OCAgICAgYzAuMDgsMC4yNCwwLjM0LDAuMzYsMC41NywwLjI4YzAuMDEtMC4wMSwwLjAzLTAuMDEsMC4wNC0wLjAybDEuMjgtMC40MmMwLjI2LTAuMDksMC41NS0wLjAxLDAuNzMsMC4yICAgICBjMC4yLDAuMjEsMC4zNywwLjQsMC41NiwwLjU4YzAuMiwwLjE5LDAuMjUsMC40OSwwLjE1LDAuNzRjLTAuMSwwLjQyLTAuMiwwLjktMC4yNywxLjIzYy0wLjA5LDAuMjMsMC4wMiwwLjUsMC4yNiwwLjU5ICAgICBjMC4wMiwwLjAxLDAuMDQsMC4wMSwwLjA1LDAuMDJjMC4yNywwLjExLDAuNjQsMC4yOSwwLjgyLDAuMzZjMC4xOCwwLjA3LDAuNDcsMC4xMiwwLjY3LTAuMzJjMC4yMS0wLjQ0LDAuNDUtMC45NywwLjUyLTEuMTQgICAgIGMwLjA3LTAuMTYsMC4yNC0wLjI5LDAuNTgtMC4zMWMwLjM0LTAuMDMsMC43LTAuMDYsMC45NC0wLjA3YzAuMjUtMC4wMiwwLjQ4LDAuMTEsMC42LDAuMzRjMC4xMiwwLjE5LDAuNDQsMC45LDAuNTUsMS4xICAgICBjMC4wNiwwLjI2LDAuMzIsMC40MywwLjU5LDAuMzdjMC4wNC0wLjAxLDAuMDctMC4wMiwwLjExLTAuMDRjMC40OC0wLjE0LDAuNzYtMC4yNCwxLjAxLTAuMzNjMC4yNS0wLjA5LDAuMzMtMC4zMywwLjItMC42NiAgICAgYy0wLjEyLTAuMzQtMC4zMy0wLjkxLTAuNDUtMS4yYy0wLjExLTAuMjksMC0wLjQ4LDAuMjMtMC43MmMwLjItMC4yMSwwLjQyLTAuNCwwLjY1LTAuNThjMC4yMy0wLjEzLDAuNTEtMC4xNSwwLjc0LTAuMDQgICAgIGMwLjM2LDAuMDksMC43LDAuMiwwLjk2LDAuMjVjMC4yNywwLjA2LDAuNjIsMC4yMSwwLjgxLTAuMmMwLjE5LTAuNDEsMC4yOC0wLjYzLDAuMzgtMC45QzEzLjksNDMuOSwxMy45LDQzLjY5LDEzLjU1LDQzLjUyeiAgICAgIE02LjgxLDQ0LjU0Yy0xLjQ2LTAuMTEtMi41NS0xLjM3LTIuNDQtMi44M2MwLjExLTEuNDYsMS4zNy0yLjU1LDIuODMtMi40NGMxLjQ0LDAuMTEsMi41MywxLjM1LDIuNDQsMi44ICAgICBDOS41NCw0My41Myw4LjI4LDQ0LjY0LDYuODEsNDQuNTRDNi44MSw0NC41NCw2LjgxLDQ0LjU0LDYuODEsNDQuNTR6Ii8+JiN4YTsJCTwvZz4mI3hhOwkJPGcgaWQ9Imdyb3VwMTU5OS04Ij4mI3hhOwkJCTx0aXRsZSBpZD0idGl0bGU0NzYzMyI+ZzczNDk8L3RpdGxlPiYjeGE7CQkJPGcgaWQ9InNoYXBlMTYwMC05IiB0cmFuc2Zvcm09InRyYW5zbGF0ZSgxNi41NzUsLTI3KSI+JiN4YTsJCQkJPHRpdGxlIGlkPSJ0aXRsZTQ3NjM1Ij5wYXRoNzMzMTwvdGl0bGU+JiN4YTsJCQkJPHBhdGggaWQ9InBhdGg0NzYzNyIgaW5rc2NhcGU6Y29ubmVjdG9yLWN1cnZhdHVyZT0iMCIgc3R5bGU9ImZpbGw6IzUwNTA1MDsiIGQ9Ik0xNy41NSwzOC4yNEgxLjk1ICAgICAgQzAuODksMzguMjMsMC4wMSwzOS4wOSwwLDQwLjE1djYuNjhjMC4wMSwxLjA2LDAuODksMS45MiwxLjk1LDEuOTFIMS41di05SDE4djljMS4wNywwLDEuNS0wLjg2LDEuNS0xLjl2LTYuNjkgICAgICBDMTkuNDksMzkuMDksMTguNjEsMzguMjMsMTcuNTUsMzguMjR6Ii8+JiN4YTsJCQk8L2c+JiN4YTsJCQk8ZyBpZD0ic2hhcGUxNjAxLTExIiB0cmFuc2Zvcm09InRyYW5zbGF0ZSgwLC0wLjA3NTAwMDEpIj4mI3hhOwkJCQk8dGl0bGUgaWQ9InRpdGxlNDc2NDAiPnBhdGg3MzMzPC90aXRsZT4mI3hhOwkJCQk8cGF0aCBpZD0icGF0aDQ3NjQyIiBpbmtzY2FwZTpjb25uZWN0b3ItY3VydmF0dXJlPSIwIiBzdHlsZT0iZmlsbDojRkZGRkZGOyIgZD0iTTQ2LjUsMTguMjJINC42NSAgICAgIGMtMi42MSwwLjA1LTQuNjksMi4yLTQuNjUsNC44MXYyNC4yOWMtMC4wMSwwLjc3LDAuNjIsMS40MSwxLjM5LDEuNDJoNDguMzZjMC4yNiwwLjAxLDAuNTItMC4wNSwwLjc1LTAuMTggICAgICBjMC40Mi0wLjI4LDAuNjctMC43NCwwLjY3LTEuMjRWMjMuMDNDNTEuMjEsMjAuNDEsNDkuMTIsMTguMjYsNDYuNSwxOC4yMkM0Ni41LDE4LjIyLDQ2LjUsMTguMjIsNDYuNSwxOC4yMnoiLz4mI3hhOwkJCTwvZz4mI3hhOwkJCTxnIGlkPSJzaGFwZTE2MDItMTMiIHRyYW5zZm9ybT0idHJhbnNsYXRlKDAuNjc1KSI+JiN4YTsJCQkJPHRpdGxlIGlkPSJ0aXRsZTQ3NjQ1Ij5yZWN0NzMzNTwvdGl0bGU+JiN4YTsJCQkJPHJlY3QgaWQ9InJlY3Q0NzY0NyIgeD0iMCIgeT0iNDIuMTQiIHN0eWxlPSJmaWxsOiNFNUU1RTU7IiB3aWR0aD0iNTEuMTUiIGhlaWdodD0iNi42Ii8+JiN4YTsJCQk8L2c+JiN4YTsJCQk8ZyBpZD0ic2hhcGUxNjAzLTE1IiB0cmFuc2Zvcm09InRyYW5zbGF0ZSgwLjA3NSkiPiYjeGE7CQkJCTx0aXRsZSBpZD0idGl0bGU0NzY1MCI+cGF0aDczMzc8L3RpdGxlPiYjeGE7CQkJCSYjeGE7CQkJCQk8cGF0aCBpZD0icGF0aDQ3NjUyIiBpbmtzY2FwZTpjb25uZWN0b3ItY3VydmF0dXJlPSIwIiBzdHlsZT0iZmlsbDpub25lO3N0cm9rZTojNTA1MDUwO3N0cm9rZS13aWR0aDoxLjU7c3Ryb2tlLW1pdGVybGltaXQ6MzsiIGQ9IiAgICAgIE00Ni4zNiwxNy45OUg0LjYzQzIuMDEsMTguMDYtMC4wNiwyMC4yMywwLDIyLjg1VjQ3LjNjLTAuMDIsMC43OCwwLjYsMS40MiwxLjM4LDEuNDRjMCwwLDAuMDEsMCwwLjAxLDBINDkuNiAgICAgIGMwLjI2LDAuMDIsMC41Mi0wLjA1LDAuNzUtMC4xOGMwLjQyLTAuMjgsMC42Ny0wLjc1LDAuNjctMS4yNVYyMi44NWMwLjA2LTIuNjMtMi4wMi00LjgtNC42NS00Ljg2ICAgICAgQzQ2LjM3LDE3Ljk5LDQ2LjM2LDE3Ljk5LDQ2LjM2LDE3Ljk5eiIvPiYjeGE7CQkJPC9nPiYjeGE7CQkJPGcgaWQ9InNoYXBlMTYwNC0xNyIgdHJhbnNmb3JtPSJ0cmFuc2xhdGUoMC44MjUsLTE0LjI1KSI+JiN4YTsJCQkJPHRpdGxlIGlkPSJ0aXRsZTQ3NjU1Ij5yZWN0NzMzOTwvdGl0bGU+JiN4YTsJCQkJPHJlY3QgaWQ9InJlY3Q0NzY1NyIgeD0iMCIgeT0iNDQuOTkiIHN0eWxlPSJmaWxsOiMwMDgyOTA7IiB3aWR0aD0iNDkuNSIgaGVpZ2h0PSIzLjc1Ii8+JiN4YTsJCQk8L2c+JiN4YTsJCQk8ZyBpZD0ic2hhcGUxNjA1LTE5IiB0cmFuc2Zvcm09InRyYW5zbGF0ZSg5LjgyNSwtOS43NSkiPiYjeGE7CQkJCTx0aXRsZSBpZD0idGl0bGU0NzY2MCI+cmVjdDczNDE8L3RpdGxlPiYjeGE7CQkJCSYjeGE7CQkJCQk8cGF0aCBpZD0icGF0aDQ3NjYyIiBpbmtzY2FwZTpjb25uZWN0b3ItY3VydmF0dXJlPSIwIiBzdHlsZT0iZmlsbDojRkZGRkZGO3N0cm9rZTojNTA1MDUwO3N0cm9rZS13aWR0aDoxLjU7c3Ryb2tlLW1pdGVybGltaXQ6MzsiIGQ9IiAgICAgIE0wLDQ3LjI0YzAsMC44MywwLjY3LDEuNSwxLjUsMS41aDNjMC44MywwLDEuNS0wLjY3LDEuNS0xLjV2LTguMjVjMC0wLjgzLTAuNjctMS41LTEuNS0xLjVoLTNjLTAuODMsMC0xLjUsMC42Ny0xLjUsMS41VjQ3LjI0eiAgICAgICIvPiYjeGE7CQkJPC9nPiYjeGE7CQkJPGcgaWQ9InNoYXBlMTYwNi0yMSIgdHJhbnNmb3JtPSJyb3RhdGUoOTAsMTUuNzg3NSw0NS43ODE3KSI+JiN4YTsJCQkJPHRpdGxlIGlkPSJ0aXRsZTQ3NjY1Ij5saW5lNzM0MzwvdGl0bGU+JiN4YTsJCQkJJiN4YTsJCQkJCTxwYXRoIGlkPSJwYXRoNDc2NjciIGlua3NjYXBlOmNvbm5lY3Rvci1jdXJ2YXR1cmU9IjAiIHN0eWxlPSJmaWxsOm5vbmU7c3Ryb2tlOiM1MDUwNTA7c3Ryb2tlLXdpZHRoOjEuNTtzdHJva2UtbWl0ZXJsaW1pdDozOyIgZD0iICAgICAgTTAsNDguNzRoNi43NSIvPiYjeGE7CQkJPC9nPiYjeGE7CQkJPGcgaWQ9InNoYXBlMTYwNy0yNCIgdHJhbnNmb3JtPSJ0cmFuc2xhdGUoMzUuMzI1LC05Ljc1KSI+JiN4YTsJCQkJPHRpdGxlIGlkPSJ0aXRsZTQ3NjcwIj5yZWN0NzM0NTwvdGl0bGU+JiN4YTsJCQkJJiN4YTsJCQkJCTxwYXRoIGlkPSJwYXRoNDc2NzIiIGlua3NjYXBlOmNvbm5lY3Rvci1jdXJ2YXR1cmU9IjAiIHN0eWxlPSJmaWxsOiNGRkZGRkY7c3Ryb2tlOiM1MDUwNTA7c3Ryb2tlLXdpZHRoOjEuNTtzdHJva2UtbWl0ZXJsaW1pdDozOyIgZD0iICAgICAgTTAsNDcuMjRjMCwwLjgzLDAuNjcsMS41LDEuNSwxLjVoM2MwLjgzLDAsMS41LTAuNjcsMS41LTEuNXYtOC4yNWMwLTAuODMtMC42Ny0xLjUtMS41LTEuNWgtM2MtMC44MywwLTEuNSwwLjY3LTEuNSwxLjVWNDcuMjR6ICAgICAgIi8+JiN4YTsJCQk8L2c+JiN4YTsJCQk8ZyBpZD0ic2hhcGUxNjA4LTI2IiB0cmFuc2Zvcm09InJvdGF0ZSg5MCwyOC41Mzc1LDU4LjUzMTcpIj4mI3hhOwkJCQk8dGl0bGUgaWQ9InRpdGxlNDc2NzUiPmxpbmU3MzQ3PC90aXRsZT4mI3hhOwkJCQkmI3hhOwkJCQkJPHBhdGggaWQ9InBhdGg0NzY3NyIgaW5rc2NhcGU6Y29ubmVjdG9yLWN1cnZhdHVyZT0iMCIgc3R5bGU9ImZpbGw6bm9uZTtzdHJva2U6IzUwNTA1MDtzdHJva2Utd2lkdGg6MS41O3N0cm9rZS1taXRlcmxpbWl0OjM7IiBkPSIgICAgICBNMCw0OC43NGg2Ljc1Ii8+JiN4YTsJCQk8L2c+JiN4YTsJCTwvZz4mI3hhOwk8L2c+JiN4YTs8L2c+JiN4YTs8L3N2Zz4=;" vertex="1" parent="1">
          <mxGeometry x="40" y="290" width="66" height="47" as="geometry" />
        </mxCell>
        <mxCell id="ruPHUchAiI5EwT_0No47-16" value="" style="verticalLabelPosition=bottom;html=1;verticalAlign=top;align=center;strokeColor=none;fillColor=#00BEF2;shape=mxgraph.azure.github_code;pointerEvents=1;" vertex="1" parent="1">
          <mxGeometry x="188" y="290" width="50" height="50" as="geometry" />
        </mxCell>
      </root>
    </mxGraphModel>
  </diagram>
</mxfile>
